<svg width="32" height="32" viewBox="0 0 32 32" fill="none" xmlns="http://www.w3.org/2000/svg">
<path d="M9.5 3.8125C9.5 3.59701 9.4144 3.39035 9.26202 3.23798C9.10965 3.0856 8.90299 3 8.6875 3C8.47201 3 8.26535 3.0856 8.11298 3.23798C7.9606 3.39035 7.875 3.59701 7.875 3.8125V4.625H6.25C5.38805 4.625 4.5614 4.96741 3.9519 5.5769C3.34241 6.1864 3 7.01305 3 7.875L3 9.5H29V7.875C29 7.01305 28.6576 6.1864 28.0481 5.5769C27.4386 4.96741 26.612 4.625 25.75 4.625H24.125V3.8125C24.125 3.59701 24.0394 3.39035 23.887 3.23798C23.7347 3.0856 23.528 3 23.3125 3C23.097 3 22.8903 3.0856 22.738 3.23798C22.5856 3.39035 22.5 3.59701 22.5 3.8125V4.625H9.5V3.8125ZM29 25.75V11.125H3V25.75C3 26.612 3.34241 27.4386 3.9519 28.0481C4.5614 28.6576 5.38805 29 6.25 29H25.75C26.612 29 27.4386 28.6576 28.0481 28.0481C28.6576 27.4386 29 26.612 29 25.75ZM23.3125 14.375H24.9375C25.153 14.375 25.3597 14.4606 25.512 14.613C25.6644 14.7653 25.75 14.972 25.75 15.1875V16.8125C25.75 17.028 25.6644 17.2347 25.512 17.387C25.3597 17.5394 25.153 17.625 24.9375 17.625H23.3125C23.097 17.625 22.8903 17.5394 22.738 17.387C22.5856 17.2347 22.5 17.028 22.5 16.8125V15.1875C22.5 14.972 22.5856 14.7653 22.738 14.613C22.8903 14.4606 23.097 14.375 23.3125 14.375Z" fill="#BCE4E5"/>
</svg>
